<?xml version="1.0" standalone="no"?><!DOCTYPE svg PUBLIC "-//W3C//DTD SVG 1.1//EN" "http://www.w3.org/Graphics/SVG/1.1/DTD/svg11.dtd"><svg t="1774542665965" class="icon" viewBox="0 0 1024 1024" version="1.1" xmlns="http://www.w3.org/2000/svg" p-id="5425" xmlns:xlink="http://www.w3.org/1999/xlink" width="200" height="200"><path d="M489.37813 488.8c109.1-56.56 204.4-136.36 267.6-241.8l39.4-65.76c19.072-31.84 7.992-74.94-25.9-90.04-166.78-74.26-372.4 10.834-519.4 158.08-144.7 144.88-232.2 349.6-162.54 513.6 19.802 46.66 86.32 48.08 112.38 4.594l10.058-16.79C277.77813 639.2 373.77813 548.8 489.37813 488.8z m333.8-232.4l-3.902 6.508c-69.02 115.2-165.4 214.6-286.2 273.2-112.16 54.4-205.4 139.78-269.4 246.6l-35.94 59.98c-19.072 31.84-7.988 74.94 25.92 90.04 166.78 74.26 372.4-10.834 519.4-158.08 144.7-144.88 232.2-349.6 162.64-513.6C915.77813 214.2 849.37813 212.8 823.17813 256.4z" p-id="5426" fill="#ffffff"></path></svg>